<svg xmlns="http://www.w3.org/2000/svg" xmlns:xlink="http://www.w3.org/1999/xlink" width="50" height="50" viewBox="0 0 50 50"><defs><clipPath id="b"><rect width="50" height="50"/></clipPath></defs><g id="a" clip-path="url(#b)"><path d="M0,0H32.764l-1.82,4H1.82Z" transform="translate(9 17)" fill="#fff" stroke="black" stroke-linecap="round" stroke-linejoin="round" stroke-width="1"/><path d="M0,0H38.764L34.149,17.461H4.615Z" transform="translate(44.764 43.608) rotate(180)" fill="black" stroke="black" stroke-linecap="round" stroke-linejoin="round" stroke-width="1"/><g transform="translate(23.382 21)" fill="black" stroke="black" stroke-width="1"><rect width="4" height="5" stroke="none"/><rect x="0.5" y="0.5" width="3" height="4" fill="none"/></g><g transform="translate(16.382 7)" fill="black" stroke="black" stroke-width="1"><path d="M3,0H15a3,3,0,0,1,3,3v7a0,0,0,0,1,0,0H0a0,0,0,0,1,0,0V3A3,3,0,0,1,3,0Z" stroke="none"/><path d="M3,.5H15A2.5,2.5,0,0,1,17.5,3V9a.5.5,0,0,1-.5.5H1A.5.5,0,0,1,.5,9V3A2.5,2.5,0,0,1,3,.5Z" fill="none"/></g><line y1="2" x2="3" transform="translate(25.716 8.5)" fill="none" stroke="#fafafa" stroke-linecap="round" stroke-width="0.2"/><line y1="2" x2="3" transform="translate(28.467 8.5)" fill="none" stroke="#fafafa" stroke-linecap="round" stroke-width="0.2"/><line y1="2" x2="3" transform="translate(28.467 10.5)" fill="none" stroke="#fafafa" stroke-linecap="round" stroke-width="0.2"/><g transform="translate(16.382 25.4)"><g fill="#fff" stroke="black" stroke-width="1"><circle cx="9" cy="9" r="9" stroke="none"/><circle cx="9" cy="9" r="8.5" fill="none"/></g><path d="M-.309,2.54,3.44-.4" transform="translate(9.595 6.552)" fill="none" stroke="black" stroke-linecap="round" stroke-width="0.5"/><g transform="translate(7.5 7.5)" fill="black" stroke="black" stroke-width="1"><circle cx="1.5" cy="1.5" r="1.5" stroke="none"/><circle cx="1.5" cy="1.5" r="1" fill="none"/></g><g transform="translate(3 3)" fill="none" stroke="black" stroke-width="0.4"><circle cx="6" cy="6" r="6" stroke="none"/><circle cx="6" cy="6" r="5.8" fill="none"/></g></g></g></svg>