<svg xmlns="http://www.w3.org/2000/svg" xmlns:xlink="http://www.w3.org/1999/xlink" width="50" height="50" viewBox="0 0 50 50">
  <defs>
    <clipPath id="clip-Product-icon">
      <rect width="50" height="50"/>
    </clipPath>
  </defs>
  <g id="Product-icon" clip-path="url(#clip-Product-icon)">
    <g id="Path_1" data-name="Path 1" transform="translate(24.474 0.518) rotate(45)" fill="#fff">
      <path d="M 0.8506850004196167 23.29755210876465 L 6.984909534454346 6.533641338348389 L 23.32407188415527 0.8242939710617065 L 17.30928611755371 16.85774040222168 L 0.8506850004196167 23.29755210876465 Z" stroke="none"/>
      <path d="M 22.48080635070801 1.648609161376953 L 7.373165130615234 6.927629470825195 L 1.701364517211914 22.42780113220215 L 16.91944694519043 16.4733715057373 L 22.48080635070801 1.648609161376953 M 24.16731834411621 0 L 17.6991081237793 17.24213027954102 L 0 24.16731834411621 L 6.596649169921875 6.139669418334961 L 24.16731834411621 0 Z" stroke="none" fill="black"/>
    </g>
    <g id="Path_2" data-name="Path 2" transform="matrix(-0.259, -0.966, 0.966, -0.259, 10.691, 48.138)" fill="#fff">
      <path d="M 18.3171501159668 19.0827693939209 L 0.8983418345451355 14.41540908813477 L 12.82699966430664 0.5638498663902283 L 29.48355674743652 5.000689506530762 L 18.3171501159668 19.0827693939209 Z" stroke="none"/>
      <path d="M 13.00126266479492 1.127710342407227 L 1.796680450439453 14.13847351074219 L 18.12939071655273 18.51481437683105 L 28.61796188354492 5.287561416625977 L 13.00126266479492 1.127710342407227 M 12.65272331237793 -3.814697265625e-06 L 30.34914398193359 4.713825225830078 L 18.50491333007813 19.65071487426758 L 3.814697265625e-06 14.69233512878418 L 12.65272331237793 -3.814697265625e-06 Z" stroke="none" fill="black"/>
    </g>
    <g id="Path_3" data-name="Path 3" transform="matrix(-0.259, -0.966, 0.966, -0.259, 24.879, 44.337)" fill="#fff">
      <path d="M 20.88394546508789 22.33554840087891 L 4.375124931335449 17.9676513671875 L 0.6605195999145508 0.6932834386825562 L 18.12059593200684 5.342029094696045 L 20.88394546508789 22.33554840087891 Z" stroke="none"/>
      <path d="M 1.321012496948242 1.386566162109375 L 4.799470901489258 17.56271743774414 L 20.2667064666748 21.6550350189209 L 17.67904853820801 5.741889953613281 L 1.321012496948242 1.386566162109375 M -5.7220458984375e-06 0 L 18.5621452331543 4.942171096801758 L 21.50116539001465 23.01606178283691 L 3.950763702392578 18.37258148193359 L -5.7220458984375e-06 0 Z" stroke="none" fill="black"/>
    </g>
    <path id="Path_4" data-name="Path 4" d="M837.24,514.093l4.7-2.179,15.728,7.247V527.8l-4.954,2.624V521.59Z" transform="translate(-821.819 -499.149)" fill="black" stroke="black" stroke-width="1"/>
  </g>
</svg>
