<svg xmlns="http://www.w3.org/2000/svg" xmlns:xlink="http://www.w3.org/1999/xlink" width="50" height="50" viewBox="0 0 50 50"><defs><clipPath id="b"><rect width="50" height="50"/></clipPath></defs><g id="a" clip-path="url(#b)"><path d="M4529.1-666.886h-12.326s-2.9-.185-1.953,2.039,6.6,17.053,6.6,17.053.673,1.915,2.155,1.915h24.517a3.857,3.857,0,0,0,3.166-1.915c1.078-1.915,6.129-17.053,6.129-17.053s.808-2.039-2.088-2.039Z" transform="translate(-4511 688)" fill="#fafafa" stroke="black" stroke-width="1"/><line y1="15" transform="translate(25 8.5)" fill="none" stroke="black" stroke-linecap="round" stroke-width="3"/><g transform="translate(22 22)" fill="#fafafa" stroke="black" stroke-width="1.5"><circle cx="3" cy="3" r="3" stroke="none"/><circle cx="3" cy="3" r="2.25" fill="none"/></g><path d="M4529.57-655.84s4.917,5.456,5.321,5.388,10.844-10.642,10.844-10.642" transform="translate(-4511 688)" fill="none" stroke="black" stroke-linecap="round" stroke-width="3"/><line x2="11" transform="translate(4.7 25.5)" fill="none" stroke="black" stroke-linecap="round" stroke-width="1"/><line x2="2" transform="translate(17.5 25.5)" fill="none" stroke="black" stroke-linecap="round" stroke-width="1"/><line x2="6" transform="translate(39.5 25.5)" fill="none" stroke="black" stroke-linecap="round" stroke-width="1"/></g></svg>