<svg xmlns="http://www.w3.org/2000/svg" width="28" height="28" viewBox="0 0 28 28">
  <g id="contact-icon" transform="translate(0.345)">
    <path id="Path_107" data-name="Path 107" d="M1960.915,3322.488s-2.358,1.727-1.453,4.3,4.674,6.59,4.674,6.59,5.559,5.517,8.485,4.653a4.5,4.5,0,0,0,3.075-2.969,1.429,1.429,0,0,0-.568-1.347,38.213,38.213,0,0,0-3.79-2.737c-.632-.211-1.369.842-1.369.842l-.61.505a.719.719,0,0,1-.653,0,21.672,21.672,0,0,1-3.558-3.705.649.649,0,0,1,.056-.772c.111-.089.973-.933,1.062-1.06a1.119,1.119,0,0,0,.059-1.041c-.25-.4-2.729-3.524-2.956-3.8s-.97-.2-1.117-.15a3.9,3.9,0,0,0-.914.383C1961.072,3322.368,1960.915,3322.488,1960.915,3322.488Z" transform="translate(-1953.273 -3316.504)" fill="#5bbf92"/>
    <g id="Ellipse_29" data-name="Ellipse 29" transform="translate(-0.345)" fill="none" stroke="#5bbf92" stroke-width="2">
      <circle cx="14" cy="14" r="14" stroke="none"/>
      <circle cx="14" cy="14" r="13" fill="none"/>
    </g>
  </g>
</svg>
