<svg xmlns="http://www.w3.org/2000/svg" width="59.39" height="53" viewBox="0 0 59.39 53">
  <g id="customers-icons" transform="translate(-870.352 -476.542)">
    <path id="Path_108" data-name="Path 108" d="M9488.858,3514a8.643,8.643,0,0,0,8.314,0c2.2-.142,9.1,1.635,10.8,5.116s1.35,12.365,1.35,12.365l-2.913,1.563-12.224,3.34s-16.792-3.4-17.987-4.9c-.067-.091-.063-7.988,0-8.215s.938-5.96,5.6-7.6A24.832,24.832,0,0,1,9488.858,3514Z" transform="translate(-8592.809 -3017.962)" fill="#5bbf92" stroke="#5bbf92" stroke-width="1"/>
    <path id="right-body" d="M7.17,17.975h0c.048-1.646.2-10.037-1.515-13.542C4.624,2.327,2.011.928,0,.125A8.969,8.969,0,0,1,1.108.006,7.168,7.168,0,0,0,4.561.889,6.957,6.957,0,0,0,7.94.006C8.012,0,8.085,0,8.157,0a9.844,9.844,0,0,1,2.01.27,16.626,16.626,0,0,1,2.565.8A11.462,11.462,0,0,1,15.175,2.39a5.127,5.127,0,0,1,1.639,1.82A10.168,10.168,0,0,1,17.578,7a31.807,31.807,0,0,1,.315,3.358c.1,2.153.03,3.991.029,4.006a8.982,8.982,0,0,1-2.394,1.285c-.305.122-.847.3-1.61.523l-.749-5.433-.711,5.846c-1.751.483-3.842,1.02-5.288,1.386Z" transform="translate(911.282 496.017)" fill="#5bbf92" stroke="#5bbf92" stroke-width="1"/>
    <path id="left-body" d="M8.156,17.975c-.075,0-.148,0-.217-.007a6.965,6.965,0,0,0-3.38-.882,7.207,7.207,0,0,0-3.45.882h0A8.5,8.5,0,0,1,0,17.85c2.01-.8,4.622-2.2,5.654-4.308C7.37,10.037,7.217,1.646,7.169,0,9.3.54,11.08,1.006,12.459,1.386l.711,5.846L13.918,1.8c.766.225,1.307.4,1.61.523a8.9,8.9,0,0,1,2.394,1.284c0,.018.072,1.859-.029,4.006a31.8,31.8,0,0,1-.315,3.358,10.169,10.169,0,0,1-.765,2.794,5.131,5.131,0,0,1-1.64,1.82A11.488,11.488,0,0,1,12.732,16.9a16.614,16.614,0,0,1-2.566.8A9.843,9.843,0,0,1,8.156,17.975Z" transform="translate(888.811 513.992) rotate(180)" fill="#5bbf92" stroke="#5bbf92" stroke-width="1"/>
    <g id="Ellipse_40" data-name="Ellipse 40" transform="translate(891.652 476.542)" fill="#5bbf92" stroke="#5bbf92" stroke-width="1">
      <ellipse cx="8.5" cy="9" rx="8.5" ry="9" stroke="none"/>
      <ellipse cx="8.5" cy="9" rx="8" ry="8.5" fill="none"/>
    </g>
    <g id="Subtraction_4" data-name="Subtraction 4" transform="translate(909.272 480.388)" fill="#5bbf92">
      <path d="M 6.292152404785156 14.16802310943604 C 3.944802761077881 14.16802310943604 1.777026891708374 12.90482139587402 0.5722424387931824 10.85357856750488 C 1.443213820457458 9.228022575378418 1.90232253074646 7.39756441116333 1.90232253074646 5.541153430938721 C 1.90232253074646 4.533334732055664 1.769250869750977 3.536056280136108 1.506490349769592 2.572462558746338 C 2.088339805603027 1.958017587661743 2.767436027526855 1.467379927635193 3.528552532196045 1.112003445625305 C 4.398302555084229 0.7059134840965271 5.328112602233887 0.500003457069397 6.292152404785156 0.500003457069397 C 8.071782112121582 0.500003457069397 9.745553016662598 1.209433436393738 11.0051326751709 2.497593402862549 C 12.26773262023926 3.788853406906128 12.9630823135376 5.506463527679443 12.9630823135376 7.33401346206665 C 12.9630823135376 9.161563873291016 12.26773262023926 10.87917327880859 11.0051326751709 12.17043304443359 C 9.745553016662598 13.45859336853027 8.071782112121582 14.16802310943604 6.292152404785156 14.16802310943604 Z" stroke="none"/>
      <path d="M 6.292152404785156 13.66802310943604 C 7.936102390289307 13.66802310943604 9.482913017272949 13.01202392578125 10.64763259887695 11.82086372375488 C 11.8183422088623 10.62358379364014 12.4630823135376 9.030123710632324 12.4630823135376 7.33401346206665 C 12.4630823135376 5.637903690338135 11.8183422088623 4.044443607330322 10.64763259887695 2.847163438796997 C 9.482913017272949 1.656003475189209 7.936102390289307 1.000003457069397 6.292152404785156 1.000003457069397 C 5.401752471923828 1.000003457069397 4.543112754821777 1.190113425254822 3.740092515945435 1.565053462982178 C 3.118474721908569 1.855290770530701 2.555763244628906 2.243363857269287 2.061752080917358 2.721868753433228 C 2.287917375564575 3.640671968460083 2.40232253074646 4.586458206176758 2.40232253074646 5.541153430938721 C 2.40232253074646 7.382626056671143 1.969624757766724 9.199888229370117 1.146592974662781 10.83265972137451 C 2.285002946853638 12.59378337860107 4.212817668914795 13.66802310943604 6.292152404785156 13.66802310943604 M 6.292152404785156 14.66802310943604 C 3.672082662582397 14.66802310943604 1.261072635650635 13.2071533203125 2.587280278021353e-06 10.85549354553223 C 0.9174125790596008 9.244183540344238 1.40232253074646 7.406693458557129 1.40232253074646 5.541153430938721 C 1.40232253074646 4.486133575439453 1.249822616577148 3.443453550338745 0.9490725994110107 2.442083358764648 C 1.61572253704071 1.681103467941284 2.412372589111328 1.081343412399292 3.317022562026978 0.6589534878730774 C 4.253502368927002 0.2217034548521042 5.254482746124268 3.462066615611548e-06 6.292152404785156 3.462066615611548e-06 C 8.207462310791016 3.462066615611548e-06 10.00819301605225 0.7628534436225891 11.36263275146484 2.148033380508423 C 12.71713256835938 3.533273458480835 13.4630823135376 5.375023365020752 13.4630823135376 7.33401346206665 C 13.4630823135376 9.293003082275391 12.71713256835938 11.13475322723389 11.36263275146484 12.51999378204346 C 10.00819301605225 13.90517330169678 8.207462310791016 14.66802310943604 6.292152404785156 14.66802310943604 Z" stroke="none" fill="#5bbf92"/>
    </g>
    <g id="left-min-head" transform="translate(877.157 480.388)" fill="#5bbf92">
      <path d="M 7.170936107635498 14.16802310943604 C 5.391116142272949 14.16802310943604 3.717285871505737 13.45860385894775 2.457775831222534 12.17043304443359 C 1.195275902748108 10.87923336029053 0.4999959170818329 9.161623001098633 0.4999959170818329 7.33401346206665 C 0.4999959170818329 5.50640344619751 1.195275902748108 3.788793563842773 2.457775831222534 2.497593402862549 C 3.717285871505737 1.209423422813416 5.391116142272949 0.500003457069397 7.170936107635498 0.500003457069397 C 8.124855995178223 0.500003457069397 9.045716285705566 0.7017634510993958 9.907916069030762 1.099673509597778 C 10.66021060943604 1.446873307228088 11.33359146118164 1.926446199417114 11.91302585601807 2.527215242385864 C 11.6420259475708 3.504665374755859 11.50478553771973 4.517118453979492 11.50478553771973 5.541153430938721 C 11.50478553771973 7.416845798492432 11.97306823730469 9.264235496520996 12.86135482788086 10.90265083312988 C 11.65116119384766 12.92381763458252 9.495135307312012 14.16802310943604 7.170936107635498 14.16802310943604 Z" stroke="none"/>
      <path d="M 7.170936107635498 13.66802310943604 C 9.227452278137207 13.66802310943604 11.14242172241211 12.61232089996338 12.28480434417725 10.88046169281006 C 11.44577598571777 9.234834671020508 11.00478553771973 7.401348114013672 11.00478553771973 5.541153430938721 C 11.00478553771973 4.571091651916504 11.12275981903076 3.610906600952148 11.35601997375488 2.678725481033325 C 10.86604404449463 2.21344518661499 10.31036758422852 1.836094856262207 9.698395729064941 1.553663492202759 C 8.902356147766113 1.186283469200134 8.051996231079102 1.000003457069397 7.170936107635498 1.000003457069397 C 5.526795864105225 1.000003457069397 3.979935884475708 1.655993461608887 2.815275907516479 2.847143411636353 C 1.644675970077515 4.044373512268066 0.9999959468841553 5.637833595275879 0.9999959468841553 7.33401346206665 C 0.9999959468841553 9.030193328857422 1.644675970077515 10.62365341186523 2.815275907516479 11.82088375091553 C 3.979935884475708 13.01203346252441 5.526795864105225 13.66802310943604 7.170936107635498 13.66802310943604 M 7.170936107635498 14.66802310943604 C 5.255445957183838 14.66802310943604 3.454635858535767 13.90517330169678 2.100265979766846 12.51999378204346 C 0.7458859086036682 11.13481330871582 -4.069671831530286e-06 9.293063163757324 -4.069671831530286e-06 7.33401346206665 C -4.069671831530286e-06 5.374963283538818 0.7458859086036682 3.533213376998901 2.100265979766846 2.148033380508423 C 3.454635858535767 0.7628534436225891 5.255445957183838 3.462066615611548e-06 7.170936107635498 3.462066615611548e-06 C 8.197726249694824 3.462066615611548e-06 9.189065933227539 0.2172434628009796 10.11743545532227 0.6456934809684753 C 11.01436614990234 1.059643507003784 11.80663585662842 1.648233413696289 12.47223567962646 2.395113468170166 C 12.16209602355957 3.410573482513428 12.00478553771973 4.468873500823975 12.00478553771973 5.541153430938721 C 12.00478553771973 7.426373481750488 12.49959564208984 9.281313896179199 13.435715675354 10.90543365478516 C 12.16792583465576 13.22648334503174 9.767395973205566 14.66802310943604 7.170936107635498 14.66802310943604 Z" stroke="none" fill="#5bbf92"/>
    </g>
    <g id="Ellipse_45" data-name="Ellipse 45" transform="translate(885.652 502.542)" fill="#fafafa" stroke="#5bbf92" stroke-width="2">
      <ellipse cx="14" cy="13.5" rx="14" ry="13.5" stroke="none"/>
      <ellipse cx="14" cy="13.5" rx="13" ry="12.5" fill="none"/>
    </g>
    <g id="Path_117" data-name="Path 117" transform="translate(893.96 479.94)" fill="#ec6060">
      <path d="M 5.993966579437256 44.3780403137207 C 5.242371082305908 43.87105178833008 3.058922052383423 42.33512878417969 1.146943330764771 40.373779296875 C -0.2059566676616669 38.98594665527344 -1.157596707344055 37.66313934326172 -1.681576609611511 36.44208908081055 C -2.303246736526489 34.99337005615234 -2.310116767883301 33.68985748291016 -1.701996684074402 32.56776809692383 C -0.9500066637992859 31.18022918701172 -0.04359666258096695 30.50572776794434 1.06903338432312 30.50572776794434 C 3.30543327331543 30.50572776794434 5.589553356170654 33.20060729980469 5.612363338470459 33.22782897949219 L 5.999483108520508 33.68980026245117 L 6.381993293762207 33.22400665283203 C 6.402843475341797 33.1987190246582 8.52064323425293 30.66073799133301 10.76415348052979 30.66073799133301 C 11.87939357757568 30.66073799133301 12.87194347381592 31.31422805786133 13.71424293518066 32.60305786132813 C 14.2308235168457 33.39350891113281 14.3784236907959 34.26553726196289 14.16547298431396 35.26897811889648 C 13.33487510681152 39.182861328125 7.345130920410156 43.4570426940918 5.993966579437256 44.3780403137207 Z" stroke="none"/>
      <path d="M 1.069033622741699 31.00572967529297 C 0.73370361328125 31.00572967529297 -0.2867364883422852 31.00572967529297 -1.262396812438965 32.80600738525391 C -1.800666809082031 33.79919815063477 -1.788296699523926 34.92218780517578 -1.224566459655762 36.2391471862793 C -0.7268362045288086 37.40192031860352 0.1879634857177734 38.67194747924805 1.494442939758301 40.01394653320313 C 3.178657531738281 41.74395751953125 5.083258628845215 43.14083099365234 5.993216991424561 43.771728515625 C 6.688615322113037 43.28641510009766 7.965527057647705 42.35311889648438 9.289643287658691 41.17230987548828 C 11.80067348480225 38.93304824829102 13.31758308410645 36.85581970214844 13.67636299133301 35.16518020629883 C 13.86028289794922 34.29855728149414 13.73576354980469 33.54995727539063 13.29569339752197 32.8765983581543 C 12.54110336303711 31.72196960449219 11.71304321289063 31.16070938110352 10.76419353485107 31.16073989868164 C 9.10200309753418 31.16079711914063 7.315393447875977 32.88021850585938 6.768383502960205 33.54134750366211 L 6.004663467407227 34.46900939941406 L 5.230053424835205 33.55006790161133 C 4.633503437042236 32.84237670898438 2.72307300567627 31.00572967529297 1.069033622741699 31.00572967529297 M 1.069028854370117 30.00572967529297 C 3.564659118652344 30.00572967529297 5.995593547821045 32.90668869018555 5.995593547821045 32.90668869018555 C 5.995593547821045 32.90668869018555 8.250625610351563 30.16082763671875 10.76415729522705 30.16073989868164 C 11.89534664154053 30.16069793701172 13.07879447937012 30.71677780151367 14.13278293609619 32.32952880859375 C 17.52876281738281 37.52584838867188 5.995593547821045 44.97869110107422 5.995593547821045 44.97869110107422 C 5.995593547821045 44.97869110107422 -5.147436141967773 37.87582778930664 -2.141586303710938 32.32952880859375 C -1.204643249511719 30.60071182250977 -0.06116390228271484 30.00572967529297 1.069028854370117 30.00572967529297 Z" stroke="none" fill="#ec6060"/>
    </g>
  </g>
</svg>
