<svg id="distance-icon" xmlns="http://www.w3.org/2000/svg" width="43.457" height="33.957" viewBox="0 0 43.457 33.957">
  <g id="left">
    <g id="Path_104" data-name="Path 104" fill="#fff">
      <path d="M 9.429328918457031 23.86180305480957 C 8.680237770080566 23.04176712036133 6.884872913360596 21.02633857727051 5.1090087890625 18.65912437438965 C 2.093768835067749 14.63983345031738 0.499998927116394 11.44822406768799 0.499998927116394 9.429333686828613 C 0.499998927116394 4.505683898925781 4.505679130554199 0.5000037550926208 9.429328918457031 0.5000037550926208 C 14.35297870635986 0.5000037550926208 18.3586597442627 4.505683898925781 18.3586597442627 9.429333686828613 C 18.3586597442627 11.44822406768799 16.76488876342773 14.63983345031738 13.74964904785156 18.65912437438965 C 11.97378444671631 21.02633857727051 10.1784200668335 23.04176712036133 9.429328918457031 23.86180305480957 Z" stroke="none"/>
      <path d="M 9.429328918457031 1.000003814697266 C 4.781378746032715 1.000003814697266 0.9999980926513672 4.781383514404297 0.9999980926513672 9.429324150085449 C 0.9999980926513672 11.3105936050415 2.599348068237305 14.47928333282471 5.50342845916748 18.3516845703125 C 7.022648811340332 20.37746620178223 8.55760383605957 22.14510726928711 9.429327964782715 23.11669540405273 C 10.3010721206665 22.14508819580078 11.83600902557373 20.37746620178223 13.35522842407227 18.3516845703125 C 16.25930786132813 14.47928333282471 17.8586597442627 11.3105936050415 17.8586597442627 9.429324150085449 C 17.8586597442627 4.781383514404297 14.07727909088135 1.000003814697266 9.429328918457031 1.000003814697266 M 9.429328918457031 3.814697265625e-06 C 14.63699913024902 3.814697265625e-06 18.8586597442627 4.221652984619141 18.8586597442627 9.429324150085449 C 18.8586597442627 14.63700389862061 9.429328918457031 24.59824371337891 9.429328918457031 24.59824371337891 C 9.429328918457031 24.59824371337891 -1.9073486328125e-06 14.63700389862061 -1.9073486328125e-06 9.429324150085449 C -1.9073486328125e-06 4.221652984619141 4.221658706665039 3.814697265625e-06 9.429328918457031 3.814697265625e-06 Z" stroke="none" fill="#707070"/>
    </g>
    <circle id="Ellipse_26" data-name="Ellipse 26" cx="2" cy="2" r="2" transform="translate(3.055 6.957)" fill="#fff"/>
    <path id="Path_105" data-name="Path 105" d="M1253.878,3292.438a2.944,2.944,0,0,0-1.45,2.317c-.035,1.537.816,1.927.816,1.927" transform="translate(-1245.517 -3286.339)" fill="none"/>
  </g>
  <g id="left-2" data-name="left" transform="translate(0.002 0.001)">
    <path id="Subtraction_1" data-name="Subtraction 1" d="M9.427,24.6h0C9.041,24.187,0,14.532,0,9.427a9.428,9.428,0,0,1,18.856,0c0,5.1-9.042,14.76-9.426,15.169ZM9.265,3.615A4.854,4.854,0,1,0,14.12,8.469,4.858,4.858,0,0,0,9.265,3.615Z" fill="#5abf92"/>
    <text id="C" transform="translate(5.054 11.756)" fill="#5abf92" font-size="9" font-family="Verdana"><tspan x="0" y="0">C</tspan></text>
  </g>
  <g id="left-3" data-name="left" transform="translate(6.157 1.31)">
    <path id="Path_104-2" data-name="Path 104" d="M8.609,0a8.723,8.723,0,0,1,8.609,8.831c0,4.877-8.609,14.207-8.609,14.207S0,13.709,0,8.831A8.723,8.723,0,0,1,8.609,0Z" transform="translate(20.081)" fill="#5abf92"/>
    <path id="Path_106" data-name="Path 106" d="M4.545,0A4.545,4.545,0,1,1,0,4.545,4.545,4.545,0,0,1,4.545,0Z" transform="translate(24.097 4.36)" fill="#fafafa"/>
    <g id="Ellipse_27" data-name="Ellipse 27" transform="translate(-0.603 24.646)" fill="#424242" stroke="#424242" stroke-width="1">
      <circle cx="4" cy="4" r="4" stroke="none"/>
      <circle cx="4" cy="4" r="3.5" fill="none"/>
    </g>
    <g id="Ellipse_28" data-name="Ellipse 28" transform="translate(24.898 24.646)" fill="none" stroke="#424242" stroke-width="1">
      <circle cx="4" cy="4" r="4" stroke="none"/>
      <circle cx="4" cy="4" r="3.5" fill="none"/>
    </g>
    <line id="Line_60" data-name="Line 60" y1="0.011" x2="7.846" transform="translate(9.552 28.146)" fill="none" stroke="#424242" stroke-linecap="round" stroke-width="1"/>
    <line id="Line_61" data-name="Line 61" x1="4" transform="translate(19.398 28.146)" fill="none" stroke="#424242" stroke-linecap="round" stroke-width="1"/>
  </g>
</svg>
