<svg xmlns="http://www.w3.org/2000/svg" xmlns:xlink="http://www.w3.org/1999/xlink" width="50" height="50" viewBox="0 0 50 50"><defs><style>.a{clip-path:url(#b);}.b{fill:#142b26;}</style><clipPath id="b"><rect width="50" height="50"/></clipPath></defs><g id="a" class="a"><g transform="translate(-2.487 6.241)"><path class="b" d="M18.867,24.9h2.154a.611.611,0,0,1,.611.611v17.11a.611.611,0,0,0,.611.611H30.8a.611.611,0,0,0,.611-.611V32.84a.611.611,0,0,1,.611-.611h6.111a.611.611,0,0,1,.611.611v9.777a.611.611,0,0,0,.611.611h8.555a.611.611,0,0,0,.611-.611V25.507a.611.611,0,0,1,.611-.611h2.154a.611.611,0,0,0,.428-1.05L35.5,8.2a.611.611,0,0,0-.849,0L18.442,23.846a.611.611,0,0,0,.425,1.05Z" transform="translate(-7.389 -7.411)"/><path class="b" d="M40.519,36.429H31.964a1.222,1.222,0,0,1-1.222-1.222V25.429H24.631v9.777a1.222,1.222,0,0,1-1.222,1.222H14.854a1.222,1.222,0,0,1-1.222-1.222V18.1H11.478a1.222,1.222,0,0,1-.849-2.1L26.838.346a1.216,1.216,0,0,1,1.7,0L44.745,16a1.222,1.222,0,0,1-.849,2.1H41.741v17.11A1.222,1.222,0,0,1,40.519,36.429ZM24.631,24.207h6.111a1.222,1.222,0,0,1,1.222,1.222v9.777h8.555V18.1a1.222,1.222,0,0,1,1.222-1.222H43.9L27.687,1.225,11.478,16.874h2.154A1.222,1.222,0,0,1,14.854,18.1v17.11h8.555V25.429A1.222,1.222,0,0,1,24.631,24.207Z"/></g></g></svg>