<svg xmlns="http://www.w3.org/2000/svg" xmlns:xlink="http://www.w3.org/1999/xlink" width="50" height="50" viewBox="0 0 50 50"><defs><style>.a,.c,.d,.g{fill:none;}.b{clip-path:url(#c);}.d,.g,.h{stroke:#142b26;}.d{stroke-width:1.2px;}.e,.h,.j{fill:#142b26;}.e{font-size:10px;font-family:NirmalaUI, Nirmala UI;}.f{clip-path:url(#a);}.g{stroke-linecap:round;stroke-width:1.5px;}.h{stroke-linejoin:round;}.i,.j{stroke:none;}</style><clipPath id="a"><rect class="a" width="22.82" height="21.3"/></clipPath><clipPath id="c"><rect width="50" height="50"/></clipPath></defs><g id="b" class="b"><g transform="translate(-8.053 -11.566)"><g class="c" transform="translate(16.053 15)"><path class="i" d="M2,0H26.492L34.1,7.37V41.132a2,2,0,0,1-2,2H2a2,2,0,0,1-2-2V2A2,2,0,0,1,2,0Z"/><path class="j" d="M 1.999996185302734 1.999996185302734 L 1.999996185302734 41.13158416748047 L 32.10404586791992 41.13159561157227 L 32.10404586791992 8.217552185058594 L 25.68200302124023 1.999996185302734 L 1.999996185302734 1.999996185302734 M 1.999996185302734 -3.814697265625e-06 L 26.49153518676758 -3.814697265625e-06 L 34.10404586791992 7.3701171875 L 34.10404586791992 41.13159561157227 C 34.10404586791992 42.23615646362305 33.20861434936523 43.13158416748047 32.10404586791992 43.13158416748047 L 1.999996185302734 43.13158416748047 C 0.8954353332519531 43.13158416748047 -3.814697265625e-06 42.23615646362305 -3.814697265625e-06 41.13159561157227 L -3.814697265625e-06 1.999996185302734 C -3.814697265625e-06 0.8954277038574219 0.8954353332519531 -3.814697265625e-06 1.999996185302734 -3.814697265625e-06 Z"/></g><g class="d" transform="translate(24.696 18.677)"><ellipse class="i" cx="8.356" cy="8.357" rx="8.356" ry="8.357"/><ellipse class="a" cx="8.356" cy="8.357" rx="7.756" ry="7.757"/></g><text class="e" transform="translate(28.348 31.241)"><tspan x="0" y="0">रू</tspan></text><g class="f" transform="translate(22.053 37.694)"><g transform="translate(-113.25 -76.25)"><line class="g" x2="19.66" y2="0.122" transform="translate(114.5 77.5)"/></g><g transform="translate(-113.25 -70.25)"><line class="g" x2="19.66" y2="0.122" transform="translate(114.5 77.5)"/></g><g transform="translate(-113.25 -64.25)"><line class="g" x2="19.66" y2="0.122" transform="translate(114.5 77.5)"/></g><g transform="translate(-113.25 -58.25)"><line class="g" x2="19.66" y2="0.122" transform="translate(114.5 77.5)"/></g></g></g><path class="h" d="M23389.342,1808.181v6.931h7.2Z" transform="translate(-23355 -1804)"/></g></svg>