<svg xmlns="http://www.w3.org/2000/svg" xmlns:xlink="http://www.w3.org/1999/xlink" width="24" height="24" viewBox="0 0 24 24">
  <defs>
    <clipPath id="clip-reset-icon">
      <rect width="24" height="24"/>
    </clipPath>
  </defs>
  <g id="reset-icon" clip-path="url(#clip-reset-icon)">
    <g id="reset-icon-2" data-name="reset-icon" transform="translate(2.378 2.486)">
      <circle id="ellipse-bg" cx="10.5" cy="10.5" r="10.5" transform="translate(-0.878 -0.986)" fill="#00897b"/>
      <g id="Ellipse_67" data-name="Ellipse 67" transform="translate(2.622 2.514)" fill="none" stroke="#fafafa" stroke-width="2">
        <circle cx="7" cy="7" r="7" stroke="none"/>
        <circle cx="7" cy="7" r="6" fill="none"/>
      </g>
      <rect id="Rectangle_177" data-name="Rectangle 177" width="17.169" height="5.009" transform="translate(0.858 6.745)" fill="#00897b"/>
      <g id="Polygon_1" data-name="Polygon 1" transform="translate(17.344 10.728) rotate(180)" fill="#fafafa">
        <path d="M 3.841018199920654 3.436766386032104 L 0.8831074833869934 3.436766386032104 L 2.362064123153687 0.971831738948822 L 3.841018199920654 3.436766386032104 Z" stroke="none"/>
        <path d="M 2.362059593200684 1.943651437759399 L 1.766193866729736 2.936766386032104 L 2.957930088043213 2.936766386032104 L 2.362059593200684 1.943651437759399 M 2.362062454223633 0.09436893463134766 C 2.395227432250977 0.09436893463134766 2.42839241027832 0.1105513572692871 2.447812557220459 0.1429164409637451 L 4.633252620697021 3.785326242446899 C 4.673242568969727 3.85197639465332 4.625232219696045 3.936766386032104 4.547502517700195 3.936766386032104 L 0.1766223907470703 3.936766386032104 C 0.0988926887512207 3.936766386032104 0.05088233947753906 3.85197639465332 0.09087228775024414 3.785326242446899 L 2.276312351226807 0.1429164409637451 C 2.295732498168945 0.1105513572692871 2.328897476196289 0.09436893463134766 2.362062454223633 0.09436893463134766 Z" stroke="none" fill="#fafafa"/>
      </g>
      <g id="Polygon_2" data-name="Polygon 2" transform="translate(2.122 8.548)" fill="#fafafa">
        <path d="M 3.841018199920654 3.436766386032104 L 0.8831074833869934 3.436766386032104 L 2.362064123153687 0.971831738948822 L 3.841018199920654 3.436766386032104 Z" stroke="none"/>
        <path d="M 2.362059593200684 1.943651437759399 L 1.766193866729736 2.936766386032104 L 2.957930088043213 2.936766386032104 L 2.362059593200684 1.943651437759399 M 2.362062454223633 0.09436893463134766 C 2.395227432250977 0.09436893463134766 2.42839241027832 0.1105513572692871 2.447812557220459 0.1429164409637451 L 4.633252620697021 3.785326242446899 C 4.673242568969727 3.85197639465332 4.625232219696045 3.936766386032104 4.547502517700195 3.936766386032104 L 0.1766223907470703 3.936766386032104 C 0.0988926887512207 3.936766386032104 0.05088233947753906 3.85197639465332 0.09087228775024414 3.785326242446899 L 2.276312351226807 0.1429164409637451 C 2.295732498168945 0.1105513572692871 2.328897476196289 0.09436893463134766 2.362062454223633 0.09436893463134766 Z" stroke="none" fill="#fafafa"/>
      </g>
    </g>
  </g>
</svg>
