<svg xmlns="http://www.w3.org/2000/svg" xmlns:xlink="http://www.w3.org/1999/xlink" width="50" height="50" viewBox="0 0 50 50">
  <defs>
    <clipPath id="clip-service-icon">
      <rect width="50" height="50"/>
    </clipPath>
  </defs>
  <g id="service-icon" clip-path="url(#clip-service-icon)">
    <g id="Group_3" data-name="Group 3" transform="translate(81.459 79.367)">
      <path id="Path_1" data-name="Path 1" d="M1198.4,587.806c.707.33,1.7.794,7.252,1.017,2.9,1.383,1.643,3.052,1.643,3.052a3.176,3.176,0,0,1-1.461,1.1c-.757.156-5.139.026-5.922,0s-2.5-.157-2.948-.235-2.139-.548-2.687-.6-1.7,1.3-.183,1.774a20.166,20.166,0,0,0,3.783.678c.835.1,5.452.183,6.182.183a15.868,15.868,0,0,0,2.843-.417c.261-.1,1.9-1.148,2.217-2.217,1.017-.861,8.3-5.452,8.3-5.452s1.852-1.383,3.078.365c.652,1.7-1.2,3.208-1.2,3.208s-14.778,9.554-15.065,9.684a8.177,8.177,0,0,1-2.53.887,10.885,10.885,0,0,1-3.822-.887c-1.422-.7-6.665-3.339-7.135-3.548a2.208,2.208,0,0,0-2.5-.235,12.361,12.361,0,0,1-2.922,1.722c-.469.026-.574-.313-.678-.522s-4.3-9.156-4.3-9.156-.208-.464-.046-.689,7.162-3.362,7.95-3.578a9.647,9.647,0,0,1,6.3.2C1196.81,585.665,1197.695,587.476,1198.4,587.806Z" transform="translate(-1257 -635.958)" fill="black" stroke="black" stroke-width="1"/>
      <path id="Path_2" data-name="Path 2" d="M1320.558,592.922s1.331,1.461,1.3,1.9c1.2-.73,6.782-4.382,6.782-4.382a2.711,2.711,0,0,0-3.1-.548C1323.558,591.07,1320.558,592.922,1320.558,592.922Z" transform="translate(-1369.712 -640.904)" fill="black" stroke="black" stroke-linejoin="round" stroke-width="1"/>
      <path id="Path_3" data-name="Path 3" d="M1290.764,587.088h0l4.346-2.648a5.267,5.267,0,0,1,2.1-.629,7.287,7.287,0,0,1,2.458.522l-5.046,3.028Z" transform="translate(-1345.781 -636.213)" fill="black" stroke="black" stroke-linejoin="round" stroke-width="1"/>
      <g id="_17214" data-name="17214" transform="translate(-67.811 -74.507)">
        <g id="Group_2" data-name="Group 2" transform="translate(0 0)">
          <g id="Group_1" data-name="Group 1" transform="translate(0 0)">
            <path id="Path_11" data-name="Path 11" d="M19.489,11.67l-.385-.912c1.317-2.977,1.23-3.066.974-3.324L18.4,5.79l-.167-.141h-.195c-.1,0-.41,0-2.968,1.16l-.941-.38c-1.217-3.016-1.342-3.016-1.7-3.016H10.053c-.356,0-.494,0-1.623,3.027l-.937.381a15.756,15.756,0,0,0-3.016-1.1l-.224.007L2.443,7.5c-.275.258-.37.349,1.022,3.28l-.383.909C0,12.884,0,13,0,13.364v2.328c0,.365,0,.494,3.092,1.6l.383.907c-1.317,2.976-1.229,3.065-.973,3.321l1.683,1.646.167.144h.2c.1,0,.4,0,2.966-1.163l.94.382c1.217,3.016,1.342,3.015,1.7,3.015h2.374c.363,0,.492,0,1.624-3.026l.942-.381a15.817,15.817,0,0,0,3.01,1.1l.226-.006,1.824-1.785c.259-.262.35-.352-1.035-3.271l.381-.909c3.086-1.193,3.086-1.318,3.086-1.674V13.268C22.584,12.9,22.584,12.774,19.489,11.67Zm-8.2,6.682a3.873,3.873,0,1,1,3.945-3.874A3.917,3.917,0,0,1,11.292,18.352Z" transform="translate(0 -3.414)" fill="black"/>
          </g>
        </g>
      </g>
    </g>
  </g>
</svg>
