<svg xmlns="http://www.w3.org/2000/svg" xmlns:xlink="http://www.w3.org/1999/xlink" width="50" height="50" viewBox="0 0 50 50"><defs><style>.a{clip-path:url(#b);}.b{fill:#142b26;}</style><clipPath id="b"><rect width="50" height="50"/></clipPath></defs><g id="a" class="a"><path class="b" d="M-1993.425-165.968a3.345,3.345,0,0,1-3.089-1.98l-2.147-4.754a3.388,3.388,0,0,0-3.088-1.98,3.458,3.458,0,0,0-.353.018l-5.242.54a3.665,3.665,0,0,1-.374.019,3.356,3.356,0,0,1-3.008-1.856,3.249,3.249,0,0,1,.3-3.453l3.08-4.179a3.3,3.3,0,0,0,0-3.935l-3.084-4.18a3.249,3.249,0,0,1-.3-3.453,3.356,3.356,0,0,1,3.008-1.858,3.658,3.658,0,0,1,.382.02l5.207.549a3.453,3.453,0,0,0,.361.019,3.388,3.388,0,0,0,3.091-1.985l2.124-4.724a3.346,3.346,0,0,1,3.092-1.985,3.346,3.346,0,0,1,3.09,1.98l2.147,4.754a3.388,3.388,0,0,0,3.088,1.98,3.45,3.45,0,0,0,.353-.018l5.243-.54a3.664,3.664,0,0,1,.374-.019,3.356,3.356,0,0,1,3.008,1.856,3.248,3.248,0,0,1-.3,3.452l-3.08,4.179a3.3,3.3,0,0,0,0,3.935l3.085,4.18a3.248,3.248,0,0,1,.3,3.453,3.355,3.355,0,0,1-3.007,1.857,3.665,3.665,0,0,1-.383-.02l-5.207-.549a3.45,3.45,0,0,0-.36-.019,3.389,3.389,0,0,0-3.091,1.985l-2.124,4.723A3.347,3.347,0,0,1-1993.425-165.968Zm-.022-26.26a6.733,6.733,0,0,0-6.767,6.682,6.733,6.733,0,0,0,6.767,6.683,6.733,6.733,0,0,0,6.766-6.683A6.732,6.732,0,0,0-1993.447-192.228Z" transform="translate(2018.447 210.546)"/></g></svg>