<svg xmlns="http://www.w3.org/2000/svg" xmlns:xlink="http://www.w3.org/1999/xlink" width="50" height="50" viewBox="0 0 50 50"><defs><style>.a{clip-path:url(#a);}.b{clip-path:url(#b);}.c{fill:#142b26;}.d{fill:#fafafa;font-size:12px;font-family:Montserrat-SemiBold, Montserrat;font-weight:600;}</style><clipPath id="a"><rect width="50" height="50"/></clipPath><clipPath id="b"><rect width="58.614" height="58.614"/></clipPath></defs><g id="c" class="a"><g class="a"><g class="b" transform="translate(-3.307 -4.307)"><g transform="translate(28.69 0.607) rotate(45)"><path class="c" d="M26.354,1.933,8.643,8.121,1.994,26.292l17.84-6.98,6.52-17.379M28.331,0,20.748,20.212,0,28.331,7.733,7.2Z"/></g><g transform="translate(12.533 56.431) rotate(-105.009)"><path class="c" d="M15.241,1.322,2.106,16.574,21.253,21.7l12.3-15.5L15.241,1.322M14.832,0,35.577,5.526,21.693,23.036,0,17.223Z"/></g><g transform="translate(29.165 51.975) rotate(-105.009)"><path class="c" d="M1.549,1.625,5.626,20.588l18.132,4.8L20.725,6.731,1.549,1.625M0,0,21.76,5.794,25.2,26.982,4.631,21.538Z"/></g><path class="c" d="M837.24,514.468l5.51-2.554,18.438,8.5v10.127l-5.807,3.076v-10.36Z" transform="translate(-819.162 -496.95)"/></g><rect class="c" width="41.262" height="17.074" rx="1" transform="translate(4.403 27.536) rotate(-28.999)"/><text class="d" transform="translate(13.93 37.023) rotate(-28.999)"><tspan x="0" y="0">SOLD</tspan></text></g></g></svg>