<svg xmlns="http://www.w3.org/2000/svg" xmlns:xlink="http://www.w3.org/1999/xlink" width="50" height="50" viewBox="0 0 50 50"><defs><clipPath id="a"><rect width="58.614" height="58.614"/></clipPath><clipPath id="c"><rect width="50" height="50"/></clipPath></defs><g id="b" clip-path="url(#c)"><g transform="translate(-3.307 -4.307)" clip-path="url(#a)"><g transform="translate(28.69 0.607) rotate(45)"><path d="M0,26.345,7.191,6.693,26.345,0,19.294,18.8Z" transform="translate(0.997 0.966)" fill="#fff"/><path d="M26.354,1.933,8.643,8.121,1.994,26.292l17.84-6.98L26.354,1.933M28.331,0,20.748,20.212,0,28.331,7.733,7.2Z" fill="black"/></g><g transform="translate(12.533 56.431) rotate(-105.009)"><path d="M20.42,21.709,0,16.238,13.984,0,33.51,5.2Z" transform="translate(1.053 0.661)" fill="#fff"/><path d="M15.241,1.322,2.106,16.574,21.253,21.7,33.548,6.2,15.241,1.322M14.832,0,35.577,5.526,21.693,23.036,0,17.223Z" transform="translate(0 0)" fill="black"/></g><g transform="translate(29.165 51.975) rotate(-105.009)"><path d="M23.707,25.371,4.355,20.25,0,0,20.468,5.45Z" transform="translate(0.774 0.813)" fill="#fff"/><path d="M1.549,1.625,5.626,20.588l18.132,4.8L20.725,6.731,1.549,1.625M0,0,21.76,5.794l3.445,21.188L4.631,21.538Z" transform="translate(0 0)" fill="black"/></g><path d="M837.24,514.468l5.51-2.554,18.438,8.5v10.127l-5.807,3.076V523.257Z" transform="translate(-819.162 -496.95)" fill="black" stroke="black" stroke-width="1"/></g><g transform="matrix(0.875, -0.485, 0.485, 0.875, 4.403, 27.536)" fill="#fafafa" stroke="black" stroke-width="1"><rect width="41.262" height="17.074" rx="1" stroke="none"/><rect x="0.5" y="0.5" width="40.262" height="16.074" rx="0.5" fill="none"/></g><text transform="matrix(0.875, -0.485, 0.485, 0.875, 13.93, 37.023)" fill="black" font-size="12" font-family="Montserrat-SemiBold, Montserrat" font-weight="600"><tspan x="0" y="0">SOLD</tspan></text></g></svg>