<svg xmlns="http://www.w3.org/2000/svg" xmlns:xlink="http://www.w3.org/1999/xlink" width="56" height="56" viewBox="0 0 56 56">
  <defs>
    <clipPath id="clip-User-icon">
      <rect width="56" height="56"/>
    </clipPath>
  </defs>
  <g id="User-icon" clip-path="url(#clip-User-icon)">
    <g id="User-pic-icon" transform="translate(-104.245 -42.112)">
      <g id="Ellipse_59" data-name="Ellipse 59" transform="translate(105.245 43.112)" fill="none" stroke="#fafafa" stroke-width="3">
        <circle cx="27" cy="27" r="27" stroke="none"/>
        <circle cx="27" cy="27" r="25.5" fill="none"/>
      </g>
      <path id="Inner-shape-intersect" d="M3.427,39.842A25.862,25.862,0,0,1,0,36.466a15.417,15.417,0,0,1,2.981-6.927,15.661,15.661,0,0,1,3.555-3.394,15.5,15.5,0,0,1,4.49-2.139,14.739,14.739,0,0,0,17.635-.171,15.67,15.67,0,0,1,8.484,5.451,15.423,15.423,0,0,1,2.994,6.222,25.875,25.875,0,0,1-4.2,4.334ZM7.6,12.126a12.13,12.13,0,1,1,12.13,12.126A12.128,12.128,0,0,1,7.6,12.126Z" transform="translate(112.578 50.192)" fill="#fafafa"/>
    </g>
  </g>
</svg>
